# xmcd
#
# Track frame offsets: 
#        150
#        16914
#        33507
#        53533
#        70204
#        90245
#        105987
#        131354
#        148243
#        172810
#        191719
#        211360
#        242147
#
# Disc length: 3275 seconds
#
# Revision: 13
# Processed by: cddbd v1.5.2PL0 Copyright (c) Steve Scherf et al.
# Submitted via: ExactAudioCopy v1.3
#
DISCID=a70cc90d
DTITLE=Bon Jovi - This Left Feels Right
DYEAR=2003
DGENRE=Rock
TTITLE0=Wanted Dead Or Alive
TTITLE1=Livin' On A Prayer Feat. Olivia d'Abo
TTITLE2=Bad Medicine
TTITLE3=It's My Life
TTITLE4=Lay Your Hands On Me
TTITLE5=You Give Love A Bad Name
TTITLE6=Bed Of Roses
TTITLE7=Everyday
TTITLE8=Born To Be My Baby
TTITLE9=Keep The Faith
TTITLE10=I'll Be There For You
TTITLE11=Always
TTITLE12=data track
EXTD=YEAR: 2003 ID3G: 53
EXTT0=
EXTT1=
EXTT2=
EXTT3=
EXTT4=
EXTT5=
EXTT6=
EXTT7=
EXTT8=
EXTT9=
EXTT10=
EXTT11=
EXTT12=
PLAYORDER=
